<?xml version="1.0" encoding="UTF-8"?>
<svg version="1.1" viewBox="0 0 2048 1024" width="10000" height="5000" xmlns="http://www.w3.org/2000/svg">
<path transform="translate(1934,232)" d="m0 0h22l10 2 15 6 11 7 14 14 8 13 5 14 2 9v20l-5 19-7 13-8 10-7 7-14 9-13 5-7 2-9 1h-11l-13-2-12-4-11-6-9-7-9-9-7-11-5-11-4-15v-23l5-16 7-14 11-13 10-8 16-8 9-3z" fill="#CBCBCB"/>
<path transform="translate(1483,36)" d="m0 0 6 1 4 4v20l20-11 17-10 5-3 5 2 28 16 20 12 11 6 15 9 2 3v7l-5 4h-6l-8-4 1 8v75l-2 6-3 3-3 1h-109l-5-3-2-5v-85l-7 4h-7l-4-4-1-6 5-6 16-9 1-30 4-4z" fill="#FBFBFB"/>
<path transform="translate(1944,436)" d="m0 0 18 2 15 5 12 7 10 8 7 8 6 10 6 13 3 13v20l-4 16-8 16-8 10-7 7-11 7-10 5-9 3-12 2h-13l-16-3-14-6-10-7-9-8v-7l2-16v-58l-2-16v-7l10-9 14-8 10-4z" fill="#CBCBCB"/>
<path transform="translate(1327,20)" d="m0 0h7l5 4v20l9 1 12 5 6 4 4-2 10-10h8l4 5-1 8-11 11 2 5 6 12 2 7v4h17l5 3 2 3-1 7-3 3-19 1-6 18-5 8 2 4 8 8 2 4-1 7-3 3-5 1-7-4-9-9-16 8-11 3-1 18-5 5-4 1-5-3-2-3v-19l-9-1-12-5-7-4-11 11-7 2-5-3-2-3 1-7 11-11-1-4-6-11-3-11v-3h-16l-5-2-3-5 1-6 6-4h17l2-10 4-10 4-6-2-4-8-8-2-4 1-7 4-3h7l12 11h3l12-6 10-3h4v-19z" fill="#CDCDCD"/>
<path transform="translate(1940,40)" d="m0 0h11l15 3 16 8 12 11 8 11 6 16 1 7v13l-3 14-7 14-8 10-12 9-10 5-10 3-8 1h-11l-13-2-12-5-10-7-7-6-8-11-5-10-3-11v-20l3-12 5-10 9-12 10-8 16-8z" fill="#CBCBCB"/>
<path transform="translate(1942,641)" d="m0 0 18 1 13 4 14 7 10 8 7 7 9 14 5 12 3 13v20l-3 13-6 14-8 11-6 7-10 8-16 8-9 3-12 2h-11l-15-3-8-3 3-10 4-13 3-13 2-21v-27l-2-20-5-21-5-14 1-2 14-4z" fill="#2A2A2A"/>
<path transform="translate(252,26)" d="m0 0h111l5 5 1 2v79l-5 5h-6l-5-5v-2h-92l-1 4-4 3h-6l-5-6v-76l2-5z" fill="#6DB1FE"/>
<path transform="translate(466,257)" d="m0 0h92l5 5v91l-5 5-3 1h-86l-6-3-2-3v-90l2-4z" fill="#327735"/>
<path transform="translate(467,52)" d="m0 0h91l4 3 1 3v90l-5 5h-92l-4-3-1-3v-89l3-5z" fill="#A01A1D"/>
<path transform="translate(1736,870)" d="m0 0h9l14 3 11 6 10 9 7 10 3 7 2 9v16l-4 12-6 11-10 10-15 8-13 2-15-1-13-5-10-7-8-9-6-12-3-14 1-13 4-13 6-9 6-7 10-7 10-4z" fill="#E98524"/>
<path transform="translate(1737,665)" d="m0 0h8l13 3 12 6 11 10 8 14 3 12v14l-4 14-6 10-10 10-8 5-16 5h-15l-13-4-12-7-8-8-7-12-3-11v-19l3-10 6-11 5-6 11-8 11-5z" fill="#E98524"/>
<path transform="translate(1731,52)" d="m0 0h20l12 4 11 7 7 7 8 14 3 12v14l-5 16-8 11-10 9-10 5-12 3h-13l-15-4-13-9-8-9-6-12-3-13v-8l3-14 5-10 8-10 13-9z" fill="#E98524"/>
<path transform="translate(1738,460)" d="m0 0 11 1 13 4 10 6 8 7 7 11 3 7 2 9v14l-3 11-5 10-7 9-11 8-12 5-5 1h-16l-9-2-12-6-12-11-6-10-3-8-1-5v-18l3-11 5-9 9-10 10-7 10-4z" fill="#E98524"/>
<path transform="translate(1733,256)" d="m0 0h16l11 3 9 5 10 9 7 9 4 10 2 8v14l-3 12-6 11-8 9-9 6-11 5-12 2-11-1-9-2-13-7-11-11-8-16-1-6v-18l4-13 7-11 7-7 9-6z" fill="#E98524"/>
<path transform="translate(1942,846)" d="m0 0h11l13 2 12 5 12 7 10 8 10 13 8 17 3 14v19l-4 16-8 16-6 8-10 10-13 8-11 5-14 3h-13l2-6 9-17 6-21 2-11 1-15v-12l-1-14-3-16-6-18-10-19z" fill="#2A2A2A"/>
<path transform="translate(1934,232)" d="m0 0h22l10 2 15 6 11 7 14 14 8 13 5 14 2 9v20l-5 19-7 13-8 10-7 7-14 9-13 5-7 2-9 1h-11l-13-2-12-4-11-6-9-7-9-9-7-11-5-11-4-15v-23l5-16 7-14 11-13 10-8 16-8 9-3zm11 15-11 1-15 5-12 8-9 9-8 14-4 14v18l3 12 6 12 9 11 11 8 10 5 13 3h15l15-4 11-6 10-9 7-8 7-15 2-10v-15l-4-16-6-11-11-12-11-7-9-4-8-2z" fill="#2A2A2A"/>
<path transform="translate(1944,436)" d="m0 0 18 2 15 5 12 7 10 8 7 8 6 10 6 13 3 13v20l-4 16-8 16-8 10-7 7-11 7-10 5-9 3-12 2h-13l-16-3-14-6-10-7-9-8v-7l2-16v-58l-2-16v-7l10-9 14-8 10-4zm-2 16-15 3-10 4-10 7 1 18 1 17v22l-2 28v7l8 6 11 5 12 3h15l15-4 11-6 10-9 7-8 7-15 2-10v-15l-2-10-5-12-7-10-7-7-11-7-12-5-12-2z" fill="#2B2B2B"/>
<path transform="translate(648,30)" d="m0 0h7l61 61 7-6 54-54 2-1h7l4 4 1 5-4 6-57 57 6 7 53 53 2 4-1 5-4 4-5 1-6-4-57-57-4 2-57 57-4 2-6-1-3-3-1-7 7-8 53-53-2-4-56-56-2-4 1-7z" fill="#888"/>
<path transform="translate(1326,59)" d="m0 0h10l11 3 9 5 8 7 7 11 3 11v13l-3 11-6 10-7 7-16 8-7 1h-8l-9-2-9-4-10-8-7-10-4-12v-15l4-12 7-10 7-6 12-6z" fill="#868686"/>
<path transform="translate(1939,657)" d="m0 0h13l16 4 11 6 10 9 7 8 7 15 2 10v16l-3 12-7 14-9 10-10 8-12 5-7 2-15 1-4-1 5-25 2-18v-32l-3-25-4-18z" fill="#CBCBCB"/>
<path transform="translate(1940,40)" d="m0 0h11l15 3 16 8 12 11 8 11 6 16 1 7v13l-3 14-7 14-8 10-12 9-10 5-10 3-8 1h-11l-13-2-12-5-10-7-7-6-8-11-5-10-3-11v-20l3-12 5-10 9-12 10-8 16-8zm2 16-14 3-10 5-10 9-6 9-4 12v17l4 12 6 9 8 8 14 7 8 2h15l13-4 11-7 9-10 5-11 2-7v-15l-4-12-7-11-8-7-14-7-12-2z" fill="#2A2A2A"/>
<path transform="translate(478,273)" d="m0 0h68l1 1v68h-69l-1-1v-67z" fill="#89E21F"/>
<path transform="translate(248,514)" d="m0 0h8l9 4 8 7 14 15 6 10 1 3v11l-4 6-8 4-11 2 4 5 5 5 1 6-5 6-5 2h-27l-11-6-7-6-5-10-3-16v-12l4-11 6-9 9-10 6-4z" fill="#A25236"/>
<path transform="translate(478,68)" d="m0 0h68v69h-68z" fill="#FF2237"/>
<path transform="translate(252,26)" d="m0 0h111l5 5 1 2v79l-5 5h-6l-5-5-1-69h-51l-39-1v66l-2 6-4 3h-6l-5-6v-76l2-5z" fill="#2678D5"/>
<path transform="translate(1479,94)" d="m0 0 7 1 3 3 1 3v68h92v-70l5-5 7 1 4 5v75l-2 6-3 3-3 1h-109l-5-3-2-5v-78z" fill="#868686"/>
<path transform="translate(383,424)" d="m0 0h7l5 4 1 7-7 8-91 91-8 1-5-3-12-12-2-4 1-7 11-10 14-10 18-14 28-21 26-20z" fill="#A25235"/>
<path transform="translate(1734,68)" d="m0 0h13l9 3 9 6 7 9 3 8 1 11-2 10-6 10-7 7-11 5-12 1-12-3-9-6-6-7-5-11v-16l5-12 6-7 10-6z" fill="#FDD23F"/>
<path transform="translate(1735,477)" d="m0 0h11l10 3 10 7 6 9 3 7 1 12-2 9-5 9-4 5-11 7-8 2h-11l-11-4-6-4-8-9-4-10v-16l4-10 9-10 7-4z" fill="#FDD23F"/>
<path transform="translate(1737,272)" d="m0 0h8l10 3 8 5 8 9 4 9 1 12-3 12-7 10-8 6-10 4h-15l-10-4-10-9-5-8-2-6v-16l4-9 6-8 8-6 7-3z" fill="#FDD23F"/>
<path transform="translate(1733,682)" d="m0 0h15l12 5 8 7 5 8 2 6 1 11-2 10-6 10-9 8-9 4-12 1-12-3-9-6-6-7-5-12v-15l4-10 9-10 8-5z" fill="#FDD23F"/>
<path transform="translate(1733,887)" d="m0 0h15l11 4 10 9 5 10 2 13-2 10-5 10-9 8-8 4-4 1h-14l-9-3-9-6-6-8-4-10v-15l4-10 7-9 10-6z" fill="#FDD23F"/>
<path transform="translate(1118,70)" d="m0 0h17l7 3 6 4 7 8 4 9v18l-5 10-9 9-9 4-5 1h-9l-10-3-9-6-8-11-2-9v-10l3-9 6-9 8-6z" fill="#868686"/>
<path transform="translate(1483,36)" d="m0 0 6 1 4 4v20l20-11 17-10 5-3 5 2 28 16 20 12 11 6 15 9 2 3v7l-5 4h-6l-14-8-24-14-28-16-5-1-24 14-28 16-15 9h-7l-4-4-1-6 5-6 16-9 1-30 4-4z" fill="#878787"/>
<path transform="translate(27,117)" d="m0 0h6l28 16 15 9 11 6 14 8 5-1 24-14 23-13 17-10 7-1 4 2 2 4-1 7-5 4-11 6-13 8-11 6-28 16-10 6-4-1-11-6-23-13-24-14-17-10-3-4v-6z" fill="#888"/>
<path transform="translate(840,94)" d="m0 0h163l5 4 1 6-3 5-1 1h-167l-3-3-1-7 4-5z" fill="#8A8A8A"/>
<path transform="translate(231,222)" d="m0 0h120l5 3 2 2v7l-4 4-3 1h-120l-5-3-2-4 1-6 3-3z" fill="#868686"/>
<path transform="translate(1970,867)" d="m0 0 10 5 11 10 9 14 4 12 1 6v15l-4 16-7 12-9 10-14 9-1-3 5-19 3-22v-21l-3-22-5-19z" fill="#C9C9C9"/>
<path transform="translate(375,255)" d="m0 0h6l5 4 1 3v119l-4 5-7 1-5-4-1-3v-119z" fill="#8A8A8A"/>
<path transform="translate(272,63)" d="m0 0h70l5 4v8l-5 4h-70l-5-5v-6z" fill="#2577D4"/>
<path transform="translate(250,531)" d="m0 0 6 1 10 10 7 8 4 5v3l-12 3-6 4-3 4-1 3v7l1 5h-7l-9-6-3-4-2-11v-12l4-8z" fill="#E98524"/>
<path transform="translate(1548,120)" d="m0 0h18l5 3 1 2v33l-4 4h-21l-4-3-1-3v-31l4-4z" fill="#868686"/>
<path transform="translate(310,336)" d="m0 0h47l6 3 2 6-2 5-4 3h-51l-5-4-1-6 3-5z" fill="#8A8A8A"/>
<path transform="translate(326,303)" d="m0 0h32l4 4 1 6-3 5-5 2h-27l-6-3-2-7 3-5z" fill="#8A8A8A"/>
<path transform="translate(1738,622)" d="m0 0 7 1 3 3 1 3v28l-3 5-2 1h-7l-4-4-1-4v-25l2-5z" fill="#E98624"/>
<path transform="translate(1738,827)" d="m0 0 7 1 4 5v30l-5 5h-7l-4-4-1-4v-25l2-5z" fill="#E98524"/>
<path transform="translate(1739,975)" d="m0 0 6 1 4 4v30l-2 4-4 2-7-1-3-3-1-4v-26l3-5z" fill="#E98524"/>
<path transform="translate(1739,770)" d="m0 0 6 1 4 5v29l-3 5-2 1h-7l-4-4-1-4v-25l3-6z" fill="#E98524"/>
<path transform="translate(1663,913)" d="m0 0h16l7 3 1 2v7l-5 5h-30l-5-4-1-7 4-5z" fill="#E98524"/>
<path transform="translate(1802,913)" d="m0 0h16l13 1 4 4v7l-6 5h-29l-5-4-1-7 4-5z" fill="#E98524"/>
<path transform="translate(1801,852)" d="m0 0 6 2 3 4-1 7-21 21h-7l-5-5 1-8 20-20z" fill="#E98624"/>
<path transform="translate(1678,852)" d="m0 0 6 1 21 21v7l-5 5h-6l-8-7-13-13-2-4 1-5 3-4z" fill="#E98524"/>
<path transform="translate(1781,957)" d="m0 0h6l8 7 14 14 1 7-4 5h-8l-8-7-13-13-1-7 3-5z" fill="#E98524"/>
<path transform="translate(1695,957)" d="m0 0 7 1 3 4v7l-21 21h-8l-4-3-1-6 4-6 17-17z" fill="#E98624"/>
<path transform="translate(1650,709)" d="m0 0h33l4 5v6l-3 4-3 1h-29l-5-4-1-7z" fill="#E98524"/>
<path transform="translate(1799,709)" d="m0 0h32l4 5v6l-4 4-2 1h-29l-4-2-2-4 1-7z" fill="#E98524"/>
<path transform="translate(1782,752)" d="m0 0 7 1 13 13 1 2v6l-5 5h-6l-8-7-7-7-1-7 4-5z" fill="#E98524"/>
<path transform="translate(1684,654)" d="m0 0 6 1 8 7 7 8v6l-5 5h-6l-8-7-7-7-1-7 4-5z" fill="#E98524"/>
<path transform="translate(1740,565)" d="m0 0 7 3 2 3v21l-5 5h-6l-5-5v-22l4-4z" fill="#E98624"/>
<path transform="translate(1800,504)" d="m0 0h21l4 4 1 6-2 4-3 2h-22l-4-4-1-6 2-4z" fill="#E98524"/>
<path transform="translate(1695,752)" d="m0 0 6 1 4 4v6l-4 6-8 8-4 2h-6l-4-4-1-6 7-8 8-8z" fill="#E98724"/>
<path transform="translate(1793,654)" d="m0 0 7 1 3 5-1 7-7 8-7 6h-7l-5-6 1-6 14-14z" fill="#E98724"/>
<path transform="translate(1739,427)" d="m0 0 6 1 4 4v20l-3 5-4 2-5-1-4-4v-22l3-4z" fill="#E98524"/>
<path transform="translate(1661,504)" d="m0 0h21l5 5v6l-5 5h-21l-5-5v-6z" fill="#E98524"/>
<path transform="translate(1504,90)" d="m0 0 6 1 4 5v20l-4 5h-8l-4-5v-20l2-4z" fill="#868686"/>
<path transform="translate(1783,547)" d="m0 0 5 1 4 4v8l-3 3-7 1-5-5-1-4 2-5z" fill="#E98725"/>
<path transform="translate(1696,547)" d="m0 0 6 2 3 3v7l-4 4-6 1-5-4-1-7 4-5z" fill="#E98724"/>
<path transform="translate(1782,460)" d="m0 0 7 1 3 3v8l-4 4-4 1-6-3-2-4 1-6z" fill="#EA8925"/>
<path transform="translate(1695,460)" d="m0 0 6 1 4 4v7l-4 4-5 1-6-4-1-7 4-5z" fill="#E98825"/>
<path transform="translate(1677,299)" d="m0 0 6 1 3 3 1 7-5 5h-7l-4-4v-7z" fill="#E98524"/>
<path transform="translate(1738,361)" d="m0 0 7 1 3 3 1 6-5 6h-6l-5-4v-8z" fill="#E98624"/>
<path transform="translate(1800,299)" d="m0 0 6 1 4 4v7l-4 4h-7l-4-4-1-6 4-5z" fill="#E98524"/>
<path transform="translate(1737,238)" d="m0 0h7l4 4 1 5-3 5-4 2-5-1-4-4v-7z" fill="#E98524"/>
</svg>
